<svg width="25" height="32" viewBox="0 0 25 32" fill="none" xmlns="http://www.w3.org/2000/svg">
    <path d="M17.8735 6.875C17.8735 8.36684 17.2809 9.79758 16.226 10.8525C15.1711 11.9074 13.7403 12.5 12.2485 12.5C10.7567 12.5 9.32592 11.9074 8.27102 10.8525C7.21613 9.79758 6.6235 8.36684 6.6235 6.875C6.6235 5.38316 7.21613 3.95242 8.27102 2.89752C9.32592 1.84263 10.7567 1.25 12.2485 1.25C13.7403 1.25 15.1711 1.84263 16.226 2.89752C17.2809 3.95242 17.8735 5.38316 17.8735 6.875ZM1 28.052C1.0482 25.1005 2.25451 22.2862 4.35877 20.2161C6.46302 18.1459 9.29663 16.9857 12.2485 16.9857C15.2004 16.9857 18.034 18.1459 20.1382 20.2161C22.2425 22.2862 23.4488 25.1005 23.497 28.052C19.9681 29.6701 16.1307 30.5053 12.2485 30.5C8.2345 30.5 4.4245 29.624 1 28.052Z" stroke="url(#paint0_linear_31_146)" stroke-width="1.5" stroke-linecap="round" stroke-linejoin="round"/>
    <defs>
        <linearGradient id="paint0_linear_31_146" x1="1" y1="1" x2="23" y2="30" gradientUnits="userSpaceOnUse">
            <stop stop-color="#28CF98"/>
            <stop offset="1" stop-color="#A6DE36"/>
        </linearGradient>
    </defs>
</svg>
