<svg width="26" height="26" viewBox="0 0 26 26" fill="none" xmlns="http://www.w3.org/2000/svg">
    <path d="M1 14.5C1 13.672 1.672 13 2.5 13H5.5C6.328 13 7 13.672 7 14.5V23.5C7 24.328 6.328 25 5.5 25H2.5C2.10218 25 1.72064 24.842 1.43934 24.5607C1.15804 24.2794 1 23.8978 1 23.5V14.5ZM10 8.5C10 7.672 10.672 7 11.5 7H14.5C15.328 7 16 7.672 16 8.5V23.5C16 24.328 15.328 25 14.5 25H11.5C11.1022 25 10.7206 24.842 10.4393 24.5607C10.158 24.2794 10 23.8978 10 23.5V8.5ZM19 2.5C19 1.672 19.672 1 20.5 1H23.5C24.328 1 25 1.672 25 2.5V23.5C25 24.328 24.328 25 23.5 25H20.5C20.1022 25 19.7206 24.842 19.4393 24.5607C19.158 24.2794 19 23.8978 19 23.5V2.5Z" stroke="black" stroke-width="1.5" stroke-linecap="round" stroke-linejoin="round"/>
</svg>
