<svg width="26" height="26" viewBox="0 0 26 26" fill="none" xmlns="http://www.w3.org/2000/svg">
    <path d="M1 14.75C1 13.922 1.672 13.25 2.5 13.25H5.5C6.328 13.25 7 13.922 7 14.75V23.75C7 24.578 6.328 25.25 5.5 25.25H2.5C2.10218 25.25 1.72064 25.092 1.43934 24.8107C1.15804 24.5294 1 24.1479 1 23.75V14.75ZM10 8.75003C10 7.92203 10.672 7.25003 11.5 7.25003H14.5C15.328 7.25003 16 7.92203 16 8.75003V23.75C16 24.578 15.328 25.25 14.5 25.25H11.5C11.1022 25.25 10.7206 25.092 10.4393 24.8107C10.158 24.5294 10 24.1479 10 23.75V8.75003ZM19 2.75003C19 1.92203 19.672 1.25003 20.5 1.25003H23.5C24.328 1.25003 25 1.92203 25 2.75003V23.75C25 24.578 24.328 25.25 23.5 25.25H20.5C20.1022 25.25 19.7206 25.092 19.4393 24.8107C19.158 24.5294 19 24.1479 19 23.75V2.75003Z" stroke="black" stroke-width="1.5" stroke-linecap="round" stroke-linejoin="round"/>
</svg>
