<svg width="25" height="31" viewBox="0 0 25 31" fill="none" xmlns="http://www.w3.org/2000/svg">
    <path d="M18.3764 6.625C18.3764 8.11684 17.7838 9.54758 16.7289 10.6025C15.674 11.6574 14.2433 12.25 12.7514 12.25C11.2596 12.25 9.82885 11.6574 8.77395 10.6025C7.71906 9.54758 7.12643 8.11684 7.12643 6.625C7.12643 5.13316 7.71906 3.70242 8.77395 2.64752C9.82885 1.59263 11.2596 1 12.7514 1C14.2433 1 15.674 1.59263 16.7289 2.64752C17.7838 3.70242 18.3764 5.13316 18.3764 6.625ZM1.50293 27.802C1.55113 24.8505 2.75744 22.0362 4.8617 19.9661C6.96595 17.8959 9.79956 16.7357 12.7514 16.7357C15.7033 16.7357 18.5369 17.8959 20.6412 19.9661C22.7454 22.0362 23.9517 24.8505 23.9999 27.802C20.471 29.4201 16.6337 30.2553 12.7514 30.25C8.73743 30.25 4.92743 29.374 1.50293 27.802Z" stroke="black" stroke-width="1.5" stroke-linecap="round" stroke-linejoin="round"/>
</svg>
